<?xml version="1.0" standalone="no"?>
<!DOCTYPE svg PUBLIC "-//W3C//DTD SVG 20010904//EN"
 "http://www.w3.org/TR/2001/REC-SVG-20010904/DTD/svg10.dtd">
<svg version="1.0" xmlns="http://www.w3.org/2000/svg"
 width="512.000000pt" height="512.000000pt" viewBox="0 0 512.000000 512.000000"
 preserveAspectRatio="xMidYMid meet">

<g transform="translate(0.000000,512.000000) scale(0.100000,-0.100000)"
fill="#000000" stroke="none">
<path d="M1130 5109 c-535 -52 -972 -439 -1095 -967 -33 -141 -36 -287 -33
-1672 l4 -1375 22 -98 c118 -518 500 -883 1022 -978 61 -11 340 -14 1520 -14
1378 0 1449 1 1535 19 503 105 870 466 988 971 21 89 21 109 25 1485 2 963 0
1428 -8 1502 -37 364 -207 669 -492 883 -148 112 -302 182 -500 228 -92 21
-102 21 -1498 23 -773 1 -1443 -2 -1490 -7z m240 -644 c0 -61 1 -65 23 -65 35
0 139 -54 174 -91 39 -41 71 -111 79 -173 l7 -46 -85 0 -85 0 -7 38 c-18 111
-129 168 -258 132 -80 -23 -127 -96 -112 -175 12 -65 70 -104 209 -140 100
-26 214 -80 259 -123 102 -98 116 -256 33 -378 -38 -57 -109 -107 -183 -131
l-54 -17 0 -73 0 -73 -85 0 -85 0 0 73 0 73 -46 12 c-66 18 -125 55 -179 113
-56 60 -75 102 -75 169 l0 50 84 0 83 0 5 -51 c8 -84 58 -133 153 -150 133
-25 245 32 264 134 23 127 -37 185 -240 237 -211 54 -309 150 -309 302 0 74
14 119 55 172 32 42 105 90 163 107 l42 12 0 64 0 63 85 0 85 0 0 -65z m2712
-23 c112 -55 207 -184 211 -287 l2 -40 -79 0 -79 0 -12 42 c-49 164 -204 229
-336 140 -57 -38 -118 -144 -143 -249 l-6 -28 205 0 205 0 0 -70 0 -70 -210 0
-210 0 0 -40 0 -40 185 0 185 0 0 -70 0 -70 -180 0 -180 0 6 -27 c47 -195 165
-309 298 -288 85 15 141 66 177 165 l22 60 78 0 c91 0 90 1 63 -91 -47 -161
-180 -267 -347 -277 -225 -13 -387 126 -447 383 l-17 70 -51 3 -52 3 0 70 0
69 45 0 45 0 0 40 0 40 -45 0 -45 0 0 70 0 70 53 0 52 0 13 58 c32 138 133
293 229 349 77 45 112 53 208 51 79 -3 99 -7 157 -36z m-1391 -1398 c265 -78
422 -347 354 -607 -45 -175 -187 -316 -360 -362 -314 -81 -625 160 -625 485 0
276 221 499 496 500 45 0 104 -7 135 -16z m-1109 -1181 l47 -21 3 -96 c2 -54
-1 -96 -6 -96 -5 0 -28 11 -52 25 -95 56 -202 64 -267 21 -54 -36 -72 -86 -72
-201 0 -55 4 -112 8 -127 l7 -28 136 0 135 0 -3 -72 -3 -73 -122 -3 -123 -3 0
-74 c0 -93 -30 -190 -76 -244 -19 -21 -34 -41 -34 -43 0 -1 116 -3 257 -3
l258 0 3 -82 3 -83 -401 0 -400 0 0 58 c0 55 1 58 35 76 19 11 57 42 84 70 64
69 91 141 91 246 l0 80 -100 0 -100 0 0 75 0 75 86 0 c83 0 85 1 78 22 -3 12
-7 74 -7 137 -1 107 1 121 26 176 44 94 116 161 210 196 72 27 231 23 299 -8z
m2128 -228 c74 -140 137 -255 140 -255 3 0 56 100 119 223 62 122 122 237 133
255 l20 32 99 0 c54 0 99 -2 99 -5 0 -3 -6 -16 -14 -28 -8 -12 -78 -139 -155
-282 l-141 -260 125 -3 125 -3 0 -79 0 -80 -160 0 -160 0 0 -40 0 -40 160 0
160 0 0 -75 0 -75 -160 0 -160 0 0 -130 0 -130 -85 0 -85 0 0 130 0 130 -162
2 -163 3 -3 73 -3 72 166 0 165 0 0 40 0 40 -165 0 -165 0 0 80 0 80 131 0
c104 0 129 3 121 13 -5 6 -63 109 -127 227 -64 118 -133 243 -152 278 l-34 62
98 0 98 0 135 -255z"/>
</g>
</svg>
