<?xml version="1.0" standalone="no"?>
<!DOCTYPE svg PUBLIC "-//W3C//DTD SVG 20010904//EN"
 "http://www.w3.org/TR/2001/REC-SVG-20010904/DTD/svg10.dtd">
<svg version="1.0" xmlns="http://www.w3.org/2000/svg"
 width="225.000000pt" height="225.000000pt" viewBox="0 0 225.000000 225.000000"
 preserveAspectRatio="xMidYMid meet">

<g transform="translate(0.000000,225.000000) scale(0.100000,-0.100000)"
fill="#000000" stroke="none">
<path d="M0 1125 l0 -1125 1125 0 1125 0 0 1125 0 1125 -1125 0 -1125 0 0
-1125z m1420 945 l0 -90 -315 0 -315 0 0 90 0 90 315 0 315 0 0 -90z m-135
-195 c342 -60 623 -322 712 -664 35 -136 35 -307 0 -442 -83 -320 -327 -564
-651 -652 -117 -31 -326 -31 -444 1 -261 70 -465 238 -587 481 -118 236 -118
546 0 782 53 105 111 183 198 265 205 196 486 279 772 229z"/>
<path d="M947 1709 c-504 -124 -727 -720 -427 -1147 91 -130 211 -220 367
-276 84 -30 95 -31 238 -31 138 0 156 2 230 28 481 168 663 731 370 1142 -171
240 -487 356 -778 284z m223 -169 l0 -100 -45 0 -45 0 0 100 0 100 45 0 45 0
0 -100z m187 -177 l-92 -250 -35 23 c-19 12 -47 26 -62 29 l-28 7 152 224 c83
123 153 223 154 221 2 -2 -38 -116 -89 -254z m-552 -53 l-30 -30 -70 70 -69
70 29 30 29 31 70 -71 71 -70 -30 -30z m740 40 l-70 -70 -30 30 -30 30 70 70
70 70 30 -30 30 -30 -70 -70z m-354 -245 c90 -47 90 -193 0 -240 -17 -8 -51
-15 -77 -15 -41 0 -51 5 -85 39 -36 35 -39 43 -39 93 0 33 6 62 16 77 40 56
124 77 185 46z m-516 -115 l0 -40 -102 0 -103 0 0 40 0 40 103 0 102 0 0 -40z
m1105 0 l0 -40 -102 0 -103 0 0 40 0 40 103 0 102 0 0 -40z m-204 -96 c129
-53 233 -98 232 -99 -3 -3 -521 76 -526 79 -1 2 5 19 13 39 8 20 15 48 15 63
0 20 4 25 16 20 8 -3 121 -49 250 -102z m-811 -324 l-70 -70 -30 30 -30 30 70
70 70 70 30 -30 30 -30 -70 -70z m820 -40 l-30 -30 -70 70 -69 70 29 30 29 31
70 -71 71 -70 -30 -30z m-415 -90 l0 -100 -45 0 -45 0 0 100 0 100 45 0 45 0
0 -100z"/>
</g>
</svg>
