<?xml version="1.0" standalone="no"?>
<!DOCTYPE svg PUBLIC "-//W3C//DTD SVG 20010904//EN"
 "http://www.w3.org/TR/2001/REC-SVG-20010904/DTD/svg10.dtd">
<svg version="1.0" xmlns="http://www.w3.org/2000/svg"
 width="820.000000pt" height="860.000000pt" viewBox="0 0 820.000000 860.000000"
 preserveAspectRatio="xMidYMid meet">

<g transform="translate(0.000000,860.000000) scale(0.100000,-0.100000)"
fill="#000000" stroke="none">
<path d="M1200 8175 c-417 -71 -773 -334 -964 -713 -41 -81 -85 -209 -112
-322 -17 -71 -19 -225 -22 -2880 -2 -1981 0 -2833 8 -2902 68 -599 549 -1080
1150 -1148 66 -8 946 -10 2900 -8 3100 4 2834 -2 3039 67 190 64 358 167 502
311 187 186 302 395 365 665 18 77 19 180 19 2950 0 2770 -1 2873 -19 2950
-89 382 -308 683 -634 874 -93 54 -221 106 -344 138 l-103 28 -2855 1 c-2276
2 -2870 -1 -2930 -11z m5659 -921 c83 -9 155 -52 196 -118 l30 -49 3 -559 c2
-380 -1 -572 -8 -599 -14 -51 -82 -126 -135 -150 -38 -18 -150 -19 -2839 -19
-2117 0 -2808 3 -2838 12 -56 16 -121 78 -147 138 -21 50 -22 54 -19 613 3
621 0 587 69 656 40 40 80 61 138 71 55 9 5461 13 5550 4z m-4255 -2145 c55
-43 56 -51 56 -403 l0 -325 340 -3 340 -3 32 -33 33 -32 3 -161 c4 -180 -2
-206 -52 -242 -30 -22 -38 -22 -363 -25 l-333 -3 0 -320 c0 -435 7 -422 -230
-427 -171 -4 -213 6 -247 57 -23 34 -23 37 -23 362 l0 328 -332 3 c-302 3
-336 5 -360 21 -49 33 -58 70 -58 235 0 139 2 151 23 183 39 58 41 59 399 59
l327 0 3 341 3 341 37 34 38 34 169 0 c156 0 170 -2 195 -21z m4116 -745 c54
-32 60 -57 60 -232 0 -149 -1 -161 -23 -193 -13 -19 -38 -39 -57 -46 -26 -9
-262 -12 -920 -12 -987 -1 -928 -5 -977 68 -21 31 -23 45 -23 178 0 164 10
201 62 233 32 20 48 20 941 20 824 0 912 -2 937 -16z m-4548 -1971 l238 -237
238 237 238 237 54 0 54 0 117 -117 c74 -74 120 -129 125 -147 15 -63 -1 -86
-238 -324 -126 -126 -228 -233 -228 -238 0 -4 103 -112 229 -239 147 -147 232
-240 236 -258 16 -61 0 -87 -123 -209 -64 -64 -128 -119 -140 -123 -63 -19
-83 -4 -325 236 -126 126 -233 229 -235 229 -3 0 -109 -103 -237 -229 -240
-238 -258 -251 -323 -236 -19 4 -71 48 -150 129 -112 113 -122 126 -122 160 0
20 6 49 14 64 8 15 114 126 235 247 122 121 221 223 221 227 0 3 -103 110
-230 236 -139 140 -232 241 -236 257 -17 66 -1 94 125 218 l119 117 53 0 53 0
238 -237z m3040 217 c64 -24 138 -95 167 -160 30 -69 35 -128 17 -199 -40
-155 -176 -253 -330 -237 -113 12 -197 71 -248 173 -63 129 -36 269 73 367 27
24 69 51 92 59 62 22 166 21 229 -3z m1279 -107 c114 -115 119 -121 119 -162
0 -23 -6 -54 -14 -69 -8 -15 -300 -311 -648 -659 -552 -551 -638 -632 -670
-638 -20 -4 -47 -4 -60 0 -36 12 -246 223 -259 262 -24 73 -39 56 629 727 345
345 641 637 657 648 23 14 42 18 79 15 48 -4 52 -8 167 -124z m104 -938 c68
-30 115 -73 151 -137 26 -48 29 -62 29 -143 0 -78 -4 -97 -27 -141 -32 -60
-94 -119 -157 -147 -67 -30 -178 -29 -249 2 -66 30 -144 113 -166 177 -89 261
170 500 419 389z"/>
</g>
</svg>
